<mxfile host="app.diagrams.net" modified="2024-01-20T08:00:56.936Z" agent="Mozilla/5.0 (X11; Linux x86_64; rv:121.0) Gecko/20100101 Firefox/121.0" etag="lP49thARI_J494bmwkjM" version="22.1.21" type="github">
  <diagram name="Page-1" id="c37626ed-c26b-45fb-9056-f9ebc6bb27b6">
    <mxGraphModel dx="1593" dy="878" grid="1" gridSize="10" guides="1" tooltips="1" connect="1" arrows="1" fold="1" page="1" pageScale="1" pageWidth="1100" pageHeight="850" background="none" math="0" shadow="0">
      <root>
        <mxCell id="0" />
        <mxCell id="1" parent="0" />
        <mxCell id="BkrvlZMmECzdVpxc1S5i-16" value="" style="rounded=0;whiteSpace=wrap;html=1;" vertex="1" parent="1">
          <mxGeometry x="570" y="359.5" width="420" height="200.5" as="geometry" />
        </mxCell>
        <mxCell id="BkrvlZMmECzdVpxc1S5i-1" value="&lt;font style=&quot;font-size: 18px;&quot;&gt;Telkom&lt;/font&gt;" style="ellipse;shape=cloud;whiteSpace=wrap;html=1;" vertex="1" parent="1">
          <mxGeometry x="360" y="70" width="120" height="80" as="geometry" />
        </mxCell>
        <mxCell id="BkrvlZMmECzdVpxc1S5i-2" value="&lt;font style=&quot;font-size: 18px;&quot;&gt;Indosat&lt;/font&gt;" style="ellipse;shape=cloud;whiteSpace=wrap;html=1;align=center;" vertex="1" parent="1">
          <mxGeometry x="620" y="70" width="120" height="80" as="geometry" />
        </mxCell>
        <mxCell id="BkrvlZMmECzdVpxc1S5i-3" value="" style="sketch=0;aspect=fixed;pointerEvents=1;shadow=0;dashed=0;html=1;strokeColor=none;labelPosition=center;verticalLabelPosition=bottom;verticalAlign=top;align=center;fillColor=#00188D;shape=mxgraph.mscae.enterprise.router" vertex="1" parent="1">
          <mxGeometry x="530" y="250" width="50" height="39" as="geometry" />
        </mxCell>
        <mxCell id="BkrvlZMmECzdVpxc1S5i-4" style="rounded=0;orthogonalLoop=1;jettySize=auto;html=1;entryX=0.5;entryY=0.22;entryDx=0;entryDy=0;entryPerimeter=0;exitX=0.55;exitY=0.95;exitDx=0;exitDy=0;exitPerimeter=0;edgeStyle=elbowEdgeStyle;elbow=vertical;" edge="1" parent="1" source="BkrvlZMmECzdVpxc1S5i-1" target="BkrvlZMmECzdVpxc1S5i-3">
          <mxGeometry relative="1" as="geometry">
            <mxPoint x="470" y="260" as="targetPoint" />
          </mxGeometry>
        </mxCell>
        <mxCell id="BkrvlZMmECzdVpxc1S5i-5" style="edgeStyle=elbowEdgeStyle;rounded=0;orthogonalLoop=1;jettySize=auto;html=1;exitX=0.55;exitY=0.95;exitDx=0;exitDy=0;exitPerimeter=0;entryX=0.5;entryY=0.22;entryDx=0;entryDy=0;entryPerimeter=0;elbow=vertical;" edge="1" parent="1" source="BkrvlZMmECzdVpxc1S5i-2" target="BkrvlZMmECzdVpxc1S5i-3">
          <mxGeometry relative="1" as="geometry">
            <mxPoint x="610" y="250" as="targetPoint" />
          </mxGeometry>
        </mxCell>
        <mxCell id="BkrvlZMmECzdVpxc1S5i-6" value="" style="sketch=0;aspect=fixed;pointerEvents=1;shadow=0;dashed=0;html=1;strokeColor=none;labelPosition=center;verticalLabelPosition=bottom;verticalAlign=top;align=center;fillColor=#00188D;shape=mxgraph.mscae.enterprise.router" vertex="1" parent="1">
          <mxGeometry x="620" y="370" width="50" height="39" as="geometry" />
        </mxCell>
        <mxCell id="BkrvlZMmECzdVpxc1S5i-28" style="rounded=0;orthogonalLoop=1;jettySize=auto;html=1;" edge="1" parent="1" source="BkrvlZMmECzdVpxc1S5i-7" target="BkrvlZMmECzdVpxc1S5i-27">
          <mxGeometry relative="1" as="geometry" />
        </mxCell>
        <mxCell id="BkrvlZMmECzdVpxc1S5i-29" style="rounded=0;orthogonalLoop=1;jettySize=auto;html=1;exitX=0;exitY=1;exitDx=0;exitDy=0;exitPerimeter=0;" edge="1" parent="1" source="BkrvlZMmECzdVpxc1S5i-7" target="BkrvlZMmECzdVpxc1S5i-26">
          <mxGeometry relative="1" as="geometry" />
        </mxCell>
        <mxCell id="BkrvlZMmECzdVpxc1S5i-30" style="rounded=0;orthogonalLoop=1;jettySize=auto;html=1;" edge="1" parent="1" source="BkrvlZMmECzdVpxc1S5i-7" target="BkrvlZMmECzdVpxc1S5i-25">
          <mxGeometry relative="1" as="geometry" />
        </mxCell>
        <mxCell id="BkrvlZMmECzdVpxc1S5i-7" value="" style="sketch=0;aspect=fixed;pointerEvents=1;shadow=0;dashed=0;html=1;strokeColor=none;labelPosition=center;verticalLabelPosition=bottom;verticalAlign=top;align=center;fillColor=#00188D;shape=mxgraph.mscae.enterprise.router" vertex="1" parent="1">
          <mxGeometry x="450" y="370" width="50" height="39" as="geometry" />
        </mxCell>
        <mxCell id="BkrvlZMmECzdVpxc1S5i-13" value="" style="endArrow=classic;startArrow=classic;html=1;rounded=0;entryX=0.13;entryY=0.5;entryDx=0;entryDy=0;entryPerimeter=0;exitX=0.87;exitY=0.5;exitDx=0;exitDy=0;exitPerimeter=0;" edge="1" parent="1" source="BkrvlZMmECzdVpxc1S5i-7" target="BkrvlZMmECzdVpxc1S5i-6">
          <mxGeometry width="50" height="50" relative="1" as="geometry">
            <mxPoint x="410" y="500" as="sourcePoint" />
            <mxPoint x="460" y="450" as="targetPoint" />
          </mxGeometry>
        </mxCell>
        <mxCell id="BkrvlZMmECzdVpxc1S5i-14" value="" style="endArrow=classic;startArrow=classic;html=1;rounded=0;exitX=1;exitY=0;exitDx=0;exitDy=0;exitPerimeter=0;entryX=0;entryY=1;entryDx=0;entryDy=0;entryPerimeter=0;" edge="1" parent="1" source="BkrvlZMmECzdVpxc1S5i-7" target="BkrvlZMmECzdVpxc1S5i-3">
          <mxGeometry width="50" height="50" relative="1" as="geometry">
            <mxPoint x="367" y="268.94" as="sourcePoint" />
            <mxPoint x="550" y="330" as="targetPoint" />
          </mxGeometry>
        </mxCell>
        <mxCell id="BkrvlZMmECzdVpxc1S5i-15" value="" style="endArrow=classic;startArrow=classic;html=1;rounded=0;entryX=1;entryY=1;entryDx=0;entryDy=0;entryPerimeter=0;exitX=0;exitY=0;exitDx=0;exitDy=0;exitPerimeter=0;" edge="1" parent="1" source="BkrvlZMmECzdVpxc1S5i-6" target="BkrvlZMmECzdVpxc1S5i-3">
          <mxGeometry width="50" height="50" relative="1" as="geometry">
            <mxPoint x="670" y="359" as="sourcePoint" />
            <mxPoint x="732" y="250" as="targetPoint" />
          </mxGeometry>
        </mxCell>
        <mxCell id="BkrvlZMmECzdVpxc1S5i-17" value="" style="image;points=[];aspect=fixed;html=1;align=center;shadow=0;dashed=0;image=img/lib/allied_telesis/computer_and_terminals/Server_Desktop.svg;" vertex="1" parent="1">
          <mxGeometry x="623.7" y="470" width="42.599999999999994" height="54" as="geometry" />
        </mxCell>
        <mxCell id="BkrvlZMmECzdVpxc1S5i-18" value="" style="image;points=[];aspect=fixed;html=1;align=center;shadow=0;dashed=0;image=img/lib/allied_telesis/computer_and_terminals/Server_Desktop.svg;" vertex="1" parent="1">
          <mxGeometry x="770" y="470" width="42.599999999999994" height="54" as="geometry" />
        </mxCell>
        <mxCell id="BkrvlZMmECzdVpxc1S5i-19" style="rounded=0;orthogonalLoop=1;jettySize=auto;html=1;entryX=0.5;entryY=0.71;entryDx=0;entryDy=0;entryPerimeter=0;" edge="1" parent="1" source="BkrvlZMmECzdVpxc1S5i-17" target="BkrvlZMmECzdVpxc1S5i-6">
          <mxGeometry relative="1" as="geometry" />
        </mxCell>
        <mxCell id="BkrvlZMmECzdVpxc1S5i-20" style="rounded=0;orthogonalLoop=1;jettySize=auto;html=1;entryX=0.87;entryY=0.5;entryDx=0;entryDy=0;entryPerimeter=0;" edge="1" parent="1" source="BkrvlZMmECzdVpxc1S5i-18" target="BkrvlZMmECzdVpxc1S5i-6">
          <mxGeometry relative="1" as="geometry" />
        </mxCell>
        <mxCell id="BkrvlZMmECzdVpxc1S5i-21" value="&lt;div style=&quot;font-size: 14px;&quot;&gt;&lt;font style=&quot;font-size: 14px;&quot;&gt;DNS&lt;/font&gt;&lt;/div&gt;" style="text;html=1;align=center;verticalAlign=middle;resizable=0;points=[];autosize=1;strokeColor=none;fillColor=none;" vertex="1" parent="1">
          <mxGeometry x="616.3" y="524" width="50" height="30" as="geometry" />
        </mxCell>
        <mxCell id="BkrvlZMmECzdVpxc1S5i-22" value="&lt;div style=&quot;font-size: 14px;&quot;&gt;&lt;font style=&quot;font-size: 14px;&quot;&gt;Speedtest&lt;/font&gt;&lt;/div&gt;" style="text;html=1;align=center;verticalAlign=middle;resizable=0;points=[];autosize=1;strokeColor=none;fillColor=none;" vertex="1" parent="1">
          <mxGeometry x="746.3" y="524" width="90" height="30" as="geometry" />
        </mxCell>
        <mxCell id="BkrvlZMmECzdVpxc1S5i-24" value="&lt;div style=&quot;font-size: 18px;&quot;&gt;DMZ&lt;/div&gt;&lt;div style=&quot;font-size: 18px;&quot;&gt;Local&lt;br style=&quot;font-size: 18px;&quot;&gt;&lt;/div&gt;" style="text;html=1;align=center;verticalAlign=middle;resizable=0;points=[];autosize=1;strokeColor=none;fillColor=none;fontSize=18;fontStyle=1" vertex="1" parent="1">
          <mxGeometry x="836.3" y="380" width="70" height="60" as="geometry" />
        </mxCell>
        <mxCell id="BkrvlZMmECzdVpxc1S5i-25" value="&lt;font style=&quot;font-size: 18px;&quot;&gt;Nirwana&lt;/font&gt;" style="ellipse;shape=cloud;whiteSpace=wrap;html=1;" vertex="1" parent="1">
          <mxGeometry x="380" y="580" width="120" height="80" as="geometry" />
        </mxCell>
        <mxCell id="BkrvlZMmECzdVpxc1S5i-26" value="&lt;font style=&quot;font-size: 18px;&quot;&gt;Mitra 2&lt;/font&gt;" style="ellipse;shape=cloud;whiteSpace=wrap;html=1;" vertex="1" parent="1">
          <mxGeometry x="170" y="524" width="120" height="80" as="geometry" />
        </mxCell>
        <mxCell id="BkrvlZMmECzdVpxc1S5i-27" value="&lt;font style=&quot;font-size: 18px;&quot;&gt;Mitra 1&lt;/font&gt;" style="ellipse;shape=cloud;whiteSpace=wrap;html=1;" vertex="1" parent="1">
          <mxGeometry x="30" y="419.75" width="120" height="80" as="geometry" />
        </mxCell>
        <mxCell id="BkrvlZMmECzdVpxc1S5i-32" value="&lt;font style=&quot;font-size: 14px;&quot;&gt;Monitoring&lt;/font&gt;" style="image;points=[];aspect=fixed;html=1;align=center;shadow=0;dashed=0;image=img/lib/allied_telesis/computer_and_terminals/Server_Desktop.svg;" vertex="1" parent="1">
          <mxGeometry x="900" y="470" width="42.599999999999994" height="54" as="geometry" />
        </mxCell>
        <mxCell id="BkrvlZMmECzdVpxc1S5i-33" style="rounded=0;orthogonalLoop=1;jettySize=auto;html=1;entryX=0.87;entryY=0.5;entryDx=0;entryDy=0;entryPerimeter=0;" edge="1" parent="1" source="BkrvlZMmECzdVpxc1S5i-32" target="BkrvlZMmECzdVpxc1S5i-6">
          <mxGeometry relative="1" as="geometry" />
        </mxCell>
      </root>
    </mxGraphModel>
  </diagram>
</mxfile>
